<svg width="16" height="16" viewBox="0 0 16 16" fill="none" xmlns="http://www.w3.org/2000/svg">
<g clip-path="url(#clip0_381_19796)">
<rect width="16" height="16" rx="3" fill="white"/>
<g clip-path="url(#clip1_381_19796)">
<path d="M2.67613 -0.0373535H13.3239C14.9382 -0.0373535 16.2434 1.26785 16.2434 2.88219V13.1178C16.2434 14.7321 14.9382 16.0373 13.3239 16.0373H2.67613C1.0618 16.0373 -0.243408 14.7321 -0.243408 13.1178V2.88219C-0.243408 1.26785 1.0618 -0.0373535 2.67613 -0.0373535Z" fill="#001E36"/>
<path d="M3.46631 11.2355V4.1668C3.46631 4.11871 3.48692 4.09124 3.535 4.09124C3.65179 4.09124 3.7617 4.09124 3.9197 4.08437C4.08456 4.0775 4.2563 4.0775 4.44178 4.07063C4.62726 4.06376 4.82647 4.06376 5.03943 4.05689C5.25238 4.05002 5.45847 4.05002 5.66455 4.05002C6.22785 4.05002 6.69498 4.11871 7.07967 4.26297C7.42314 4.37975 7.73914 4.5721 8.00018 4.82627C8.22001 5.0461 8.39175 5.31401 8.50166 5.6094C8.6047 5.89792 8.65966 6.1933 8.65966 6.50243C8.65966 7.09321 8.52227 7.58094 8.24749 7.96564C7.97271 8.35033 7.58801 8.63885 7.1415 8.80372C6.67437 8.97545 6.15916 9.03728 5.59586 9.03728C5.43099 9.03728 5.32108 9.03728 5.25238 9.03041C5.18369 9.02354 5.08751 9.02354 4.95699 9.02354V11.2287C4.96386 11.2767 4.92951 11.318 4.88143 11.3248C4.87456 11.3248 4.86769 11.3248 4.85395 11.3248H3.54874C3.49379 11.3248 3.46631 11.2973 3.46631 11.2355ZM4.96386 5.41705V7.7252C5.06003 7.73207 5.14934 7.73894 5.23177 7.73894H5.59586C5.86377 7.73894 6.13168 7.69773 6.38585 7.61529C6.60567 7.55347 6.79802 7.42295 6.94915 7.25121C7.09341 7.07947 7.1621 6.84591 7.1621 6.54365C7.16897 6.33069 7.11402 6.11774 7.0041 5.93226C6.88732 5.75366 6.72246 5.61627 6.52324 5.5407C6.26907 5.43766 5.99429 5.39644 5.71264 5.40331C5.53403 5.40331 5.37603 5.40331 5.24551 5.41018C5.10812 5.40331 5.01195 5.41018 4.96386 5.41705Z" fill="#31A8FF"/>
<path d="M12.946 7.30614C12.7399 7.19623 12.5201 7.12066 12.2865 7.07258C12.0323 7.01762 11.7781 6.98327 11.5171 6.98327C11.3797 6.9764 11.2355 6.99701 11.1049 7.03136C11.0156 7.05197 10.9401 7.10005 10.892 7.16875C10.8576 7.22371 10.837 7.2924 10.837 7.35423C10.837 7.41605 10.8645 7.47788 10.9057 7.53283C10.9675 7.6084 11.05 7.67022 11.1393 7.71831C11.2973 7.80074 11.4622 7.87631 11.627 7.945C11.998 8.06865 12.3552 8.24039 12.6849 8.44648C12.9116 8.59074 13.0971 8.78308 13.2276 9.01665C13.3375 9.23647 13.3925 9.4769 13.3856 9.72421C13.3925 10.0471 13.2963 10.3699 13.1177 10.6379C12.9254 10.9126 12.6574 11.1256 12.3483 11.2492C12.0117 11.3935 11.5995 11.4691 11.1049 11.4691C10.7889 11.4691 10.4798 11.4416 10.1707 11.3798C9.93025 11.3385 9.68982 11.263 9.46999 11.1599C9.42191 11.1325 9.38756 11.0844 9.39443 11.0294V9.83412C9.39443 9.81351 9.4013 9.78603 9.42191 9.77229C9.44252 9.75855 9.46313 9.76542 9.48373 9.77916C9.75164 9.93716 10.0333 10.0471 10.3356 10.1158C10.5966 10.1845 10.8714 10.2188 11.1462 10.2188C11.4072 10.2188 11.5927 10.1845 11.7163 10.1226C11.8262 10.0746 11.9018 9.95777 11.9018 9.83412C11.9018 9.73795 11.8468 9.64864 11.7369 9.55934C11.627 9.47003 11.4003 9.36699 11.0637 9.23647C10.7134 9.11282 10.3905 8.94795 10.0882 8.74187C9.87529 8.59074 9.69669 8.39152 9.56617 8.15796C9.45626 7.93813 9.4013 7.6977 9.40817 7.45727C9.40817 7.16188 9.4906 6.88023 9.64173 6.62606C9.81347 6.35128 10.0676 6.13145 10.363 5.99406C10.6859 5.8292 11.0912 5.75363 11.5789 5.75363C11.8606 5.75363 12.1491 5.77424 12.4308 5.81546C12.6368 5.84293 12.8361 5.89789 13.0215 5.97346C13.049 5.98033 13.0765 6.0078 13.0902 6.03528C13.0971 6.06276 13.104 6.09024 13.104 6.11772V7.23744C13.104 7.26492 13.0902 7.2924 13.0696 7.30614C13.0078 7.31988 12.9734 7.31988 12.946 7.30614Z" fill="#31A8FF"/>
</g>
</g>
<defs>
<clipPath id="clip0_381_19796">
<rect width="16" height="16" rx="3" fill="white"/>
</clipPath>
<clipPath id="clip1_381_19796">
<rect width="16.4868" height="16.0746" fill="white" transform="translate(-0.243408 -0.0373535)"/>
</clipPath>
</defs>
</svg>
